<?xml version="1.0" encoding="utf-8"?>
<!-- Generator: Adobe Illustrator 27.7.0, SVG Export Plug-In . SVG Version: 6.00 Build 0)  -->
<svg version="1.1" id="Layer_1" xmlns="http://www.w3.org/2000/svg" xmlns:xlink="http://www.w3.org/1999/xlink" x="0px" y="0px"
	 viewBox="0 0 302.7 286.3" enable-background="new 0 0 302.7 286.3" xml:space="preserve">
<g>
	<path fill="#CF222B" d="M87.6,224.9v14.2h-9.9v-14.2l-11.9-22.7h10.8l6.6,13.7l6.6-13.7h9.6L87.6,224.9z"/>
	<path fill="#CF222B" d="M118,202.1h23.8v8.6h-13.9v5.8h13.5v8.3h-13.5v5.7h14.4v8.6H118V202.1L118,202.1z"/>
	<path fill="#CF222B" d="M184.2,232.2h-12.5l-2.2,6.9h-9.9l13.3-36.9h10.9l13.3,36.9h-10.4L184.2,232.2z M181.7,224.5l-3.8-11.8
		l-3.8,11.8H181.7z"/>
	<path fill="#CF222B" d="M245.2,230.7v8.4h-1.5c-2,0-3.6-0.1-4.8-0.4c-1.2-0.2-2.5-0.9-3.8-2s-2.7-2.8-4.1-5.2l-3.5-5.9H225v13.5
		h-10v-36.9h15c2.7,0,5.1,0.5,7,1.5s3.4,2.3,4.4,4s1.5,3.5,1.5,5.5c0,2.1-0.5,4.1-1.6,6c-1.1,1.8-2.6,3.3-4.7,4.4l2.6,3.8
		c0.8,1.1,1.5,2,2.2,2.5s1.7,0.8,3.1,0.8L245.2,230.7L245.2,230.7z M224.9,218h3.5c1.3,0,2.3-0.3,3-1s1.1-1.7,1.1-3
		c0-1.2-0.4-2.2-1.1-2.9c-0.7-0.7-1.7-1-3-1h-3.5V218z"/>
	<path fill="#CF222B" d="M268.2,238.5c-2.4-0.7-4.6-2-6.8-3.7l5.1-7.7c1.2,1.1,2.7,2,4.5,2.8s3.5,1.1,5.3,1.1c2.8,0,4.3-0.8,4.3-2.4
		c0-0.5-0.2-0.9-0.5-1.2s-1-0.7-1.9-1.1c-1-0.4-2.5-1-4.7-1.8c-3.4-1.2-5.9-2.6-7.6-4.3c-1.7-1.6-2.5-3.9-2.5-6.8
		c0-2.4,0.6-4.5,1.8-6.2c1.2-1.7,2.8-3.1,5-4s4.6-1.4,7.4-1.4c2.6,0,5,0.4,7.3,1.2s4.1,1.8,5.4,3.1l-5.1,7.3c-1-1-2.2-1.7-3.5-2.3
		c-1.3-0.5-2.7-0.8-4.2-0.8c-2.7,0-4,0.6-4,1.9c0,0.5,0.2,0.8,0.6,1.2c0.4,0.3,1.1,0.7,2.2,1.2c1.1,0.4,2.7,1,4.9,1.7
		c2.2,0.7,4,1.5,5.4,2.4s2.5,2.1,3.2,3.5s1.1,3.2,1.1,5.5c0,2.4-0.6,4.5-1.8,6.3c-1.2,1.8-2.9,3.2-5.1,4.2s-4.7,1.5-7.4,1.5
		C273.3,239.6,270.6,239.2,268.2,238.5z"/>
</g>
<g>
	<path fill="#CF222B" d="M92.4,43.4c-6.3,3.8-11.3,13-8.9,22.2C92,53,118,64.4,126.7,35.4c-5.8,4.6-13.3,6-17.1,5.5
		c14.2-5.9,22.3-26.7,9.6-40.9c3.7,16.8-17.6,18.2-34.4,21.4c-31.5,5.9-36.6,35.1-22.3,50C60.8,53.7,74.9,43.2,92.4,43.4L92.4,43.4z
		"/>
</g>
<g>
	<path fill="#CF222B" d="M170.7,88.6c-10.2,0-18.1,3.4-23.9,10.1c-2.1-12.9-10.2-22.9-21.8-28.3c-17.1-7.9-37-2.3-47.6,12.5
		c0,0-3,4.5-3.6,5.7l-0.1,0.2c-0.7-1.2-3-4.9-3-4.9C60.2,68.5,39.8,62.4,22.4,70.5c-20.6,9.6-30.5,34-14.2,62.9
		c11.6,20.5,29.7,36,65.5,63.7c2.8-2.2,5.5-4.3,8.1-6.3l0.2-0.2v-76.3c-6.7,5.1-14.1,9-22.3,11.7v-19.3c9.1-3.4,18-9.3,26.5-17.7
		H101v86.2c15.8-13.2,26.4-23.8,34.2-35.6c0,0.4,0,0.8,0,1.2c0,16.6,2.9,29.5,8.8,38.4c5.8,9,14.7,13.5,26.6,13.5
		c11.7,0,20.5-4.5,26.3-13.4s8.8-21.8,8.8-38.5c0-16.6-2.9-29.5-8.8-38.6C191.1,93.2,182.4,88.6,170.7,88.6z M182.9,166.5
		c-2.4,6.1-6.5,9.2-12.2,9.2c-5.9,0-10-3-12.4-9s-3.6-14.6-3.6-25.8s1.2-19.9,3.7-26s6.6-9.1,12.3-9.1c10.6,0,15.8,11.6,15.8,34.8
		C186.5,151.7,185.3,160.3,182.9,166.5z"/>
	<path fill="#CF222B" d="M288.5,102.3c-5.8-9.1-14.6-13.6-26.3-13.6c-11.8,0-20.6,4.5-26.5,13.6s-8.8,21.9-8.8,38.6
		c0,16.6,2.9,29.5,8.8,38.4c5.8,9,14.7,13.5,26.6,13.5c11.7,0,20.5-4.5,26.3-13.4s8.8-21.8,8.8-38.5
		C297.3,124.2,294.4,111.3,288.5,102.3z M274.4,166.5c-2.4,6.1-6.5,9.2-12.2,9.2c-5.9,0-10-3-12.4-9s-3.6-14.6-3.6-25.8
		s1.2-19.9,3.7-26s6.6-9.1,12.3-9.1c10.6,0,15.8,11.6,15.8,34.8C278.1,151.7,276.9,160.3,274.4,166.5z"/>
</g>
<g>
	<path fill="#1D1B1C" d="M79.6,272.8c1,1.3,1.5,2.9,1.5,4.8c0,1.6-0.4,3.1-1.1,4.3c-0.7,1.2-1.8,2.2-3.2,2.9c-1.4,0.7-3,1.1-4.9,1.1
		h-12v-29.8h10.6c2.8,0,5.1,0.7,6.7,2.1s2.5,3.2,2.5,5.5c0,1.4-0.3,2.7-1,3.8c-0.7,1.1-1.7,2.1-3,2.8
		C77.2,270.7,78.6,271.6,79.6,272.8z M65.7,268.6h4.1c1.3,0,2.3-0.4,3.1-1.2c0.8-0.8,1.2-1.8,1.2-2.9s-0.4-2-1.2-2.6
		c-0.8-0.7-1.9-1-3.2-1h-3.9L65.7,268.6L65.7,268.6z M74.1,280.1c0.8-0.7,1.2-1.7,1.2-3c0-1.2-0.4-2.2-1.1-2.8c-0.7-0.7-1.8-1-3-1
		h-5.4v7.9H71C72.2,281.1,73.3,280.8,74.1,280.1z"/>
	<path fill="#1D1B1C" d="M90.2,284.9c-1.8-1-3.1-2.3-4.1-3.9c-1-1.7-1.5-3.6-1.5-5.7s0.5-4,1.5-5.7s2.4-3,4.1-3.9
		c1.8-0.9,3.8-1.4,6-1.4s4.2,0.5,6,1.4s3.1,2.2,4.1,3.9c1,1.7,1.5,3.6,1.5,5.7s-0.5,4-1.5,5.7s-2.3,3-4.1,3.9c-1.8,1-3.7,1.4-6,1.4
		C94,286.3,92,285.9,90.2,284.9z M100.6,279.7c1.1-1.1,1.6-2.6,1.6-4.4s-0.5-3.3-1.6-4.4s-2.5-1.7-4.3-1.7s-3.2,0.6-4.3,1.7
		c-1.1,1.1-1.7,2.6-1.7,4.4s0.6,3.3,1.7,4.5c1.1,1.1,2.6,1.7,4.3,1.7C98,281.4,99.5,280.8,100.6,279.7z"/>
	<path fill="#1D1B1C" d="M115.9,285.2c-1.3-0.5-2.2-1.3-2.8-2.4c-0.6-1.1-0.9-2.6-0.9-4.5v-24h5.4v23.4c0,1.3,0.3,2.2,0.9,2.7
		s1.5,0.8,2.8,0.8h0.9v4.8H121C119,286,117.2,285.7,115.9,285.2z"/>
	<path fill="#1D1B1C" d="M147.6,281c0.4,0.3,1.1,0.5,2.1,0.5v4.8h-0.2c-2,0-3.6-0.3-4.7-0.8c-1.1-0.5-1.9-1.4-2.4-2.6
		c-0.9,1.1-1.9,1.9-3.2,2.5s-2.7,0.9-4.2,0.9c-2,0-3.9-0.5-5.5-1.4c-1.6-1-2.9-2.3-3.8-3.9c-0.9-1.7-1.3-3.6-1.3-5.7s0.4-4,1.3-5.7
		s2.2-3,3.8-3.9s3.5-1.4,5.5-1.4c2.7,0,4.9,0.9,6.7,2.6v-12.5h5.4v25C146.9,280.1,147.1,280.6,147.6,281z M141.5,272.3
		c-0.6-1-1.3-1.7-2.4-2.2s-2.2-0.8-3.5-0.8c-1.7,0-3.2,0.6-4.2,1.7c-1.1,1.1-1.6,2.6-1.6,4.4s0.5,3.3,1.6,4.5
		c1.1,1.1,2.5,1.7,4.2,1.7c1.3,0,2.5-0.3,3.6-0.8c1-0.6,1.8-1.3,2.3-2.3L141.5,272.3L141.5,272.3z"/>
	<path fill="#1D1B1C" d="M188.3,256.1v29.8h-5.9v-12.4h-13.2v12.4h-5.8v-29.8h5.8v12.4h13.2v-12.4H188.3L188.3,256.1z"/>
	<path fill="#1D1B1C" d="M214.8,276.6H199c0.2,1.7,0.8,2.9,2,3.8c1.1,0.9,2.6,1.3,4.4,1.3c1.3,0,2.5-0.2,3.6-0.6s2.1-0.9,2.8-1.4
		l2,3.8c-2.4,1.8-5.3,2.7-8.7,2.7c-2.4,0-4.4-0.5-6.1-1.4c-1.7-1-3.1-2.3-4-3.9c-0.9-1.7-1.4-3.6-1.4-5.7s0.5-4,1.4-5.7
		s2.2-3,3.9-3.9c1.7-1,3.6-1.4,5.7-1.4c2.1,0,3.9,0.5,5.5,1.4c1.6,1,2.8,2.3,3.6,4.1c0.9,1.8,1.3,3.8,1.3,6.1L214.8,276.6
		L214.8,276.6z M209.3,272.9c-0.2-1.4-0.7-2.5-1.6-3.3c-0.9-0.8-2-1.2-3.3-1.2c-1.4,0-2.5,0.4-3.5,1.2c-1,0.8-1.6,1.9-1.9,3.3H209.3
		z"/>
	<path fill="#1D1B1C" d="M241.3,280.8c0.5,0.3,1.2,0.5,2.1,0.5v4.8h-0.5c-4,0-6.3-1.1-6.9-3.2c-0.9,1.1-2,2-3.3,2.6
		s-2.7,0.9-4.2,0.9c-2,0-3.9-0.5-5.5-1.4c-1.6-1-2.9-2.3-3.8-3.9c-0.9-1.7-1.3-3.6-1.3-5.7s0.4-4,1.3-5.7c0.9-1.7,2.2-3,3.8-3.9
		s3.5-1.4,5.5-1.4c2.7,0,4.9,0.9,6.7,2.6v-2.2h5.4v14.5C240.6,279.9,240.8,280.5,241.3,280.8z M235.2,272.3c-0.6-1-1.3-1.7-2.3-2.3
		c-1-0.5-2.2-0.8-3.5-0.8c-1.7,0-3.2,0.6-4.2,1.7c-1.1,1.1-1.6,2.6-1.6,4.4s0.5,3.3,1.6,4.5c1.1,1.1,2.5,1.7,4.2,1.7
		c1.2,0,2.4-0.3,3.5-0.9s1.9-1.3,2.4-2.3L235.2,272.3L235.2,272.3z"/>
	<path fill="#1D1B1C" d="M259.6,264.6v5.3h-2c-1.3,0-2.4,0.2-3.2,0.7c-0.8,0.4-1.4,1.2-2,2.1v13.2h-5.3v-21.3h5.3v3.4
		c0.6-1.3,1.3-2.1,2.3-2.7c0.9-0.5,2-0.8,3.3-0.8L259.6,264.6L259.6,264.6z"/>
	<path fill="#1D1B1C" d="M267.8,284.1c-1.4-1.3-2.1-3.4-2.1-6.4v-8.5h-4.5v-4.5h4.5v-6.5h5.4v6.5h6.1v4.5h-6.1v7.8
		c0,1.5,0.3,2.6,0.9,3.3c0.6,0.6,1.5,1,2.6,1h2.6v4.9h-2.9C271.4,286.1,269.2,285.4,267.8,284.1z"/>
	<path fill="#1D1B1C" d="M283.2,285.5c-1.4-0.6-2.7-1.5-3.8-2.7l3-3.2c0.7,0.8,1.6,1.5,2.6,1.9c1,0.5,2,0.7,3.1,0.7s1.9-0.2,2.5-0.5
		s0.9-0.8,0.9-1.5s-0.3-1.2-1-1.6c-0.6-0.4-1.8-0.8-3.6-1.4c-2.1-0.6-3.7-1.5-4.8-2.5c-1.1-1-1.7-2.4-1.7-4.2c0-1.9,0.7-3.4,2.2-4.6
		c1.5-1.1,3.5-1.7,5.9-1.7c1.7,0,3.2,0.3,4.5,0.8s2.4,1.3,3.2,2.2l-3.4,3.2c-0.3-0.6-0.9-1.1-1.7-1.5c-0.8-0.4-1.7-0.6-2.7-0.6
		c-0.9,0-1.6,0.2-2.1,0.5s-0.7,0.8-0.7,1.3c0,0.4,0.1,0.8,0.4,1.1c0.3,0.3,0.8,0.6,1.4,0.8s1.7,0.6,3,1.1c2,0.6,3.6,1.5,4.6,2.5
		c1.1,1,1.6,2.4,1.6,4.1c0,2-0.8,3.6-2.3,4.9c-1.5,1.2-3.7,1.9-6.3,1.9C286.2,286.3,284.6,286.1,283.2,285.5z"/>
</g>
<g>
	<path fill="#1D1B1C" d="M142,45.2h-5.6l-1.2,4.6h-3.4l5.6-19.3h3.7l5.6,19.3h-3.6L142,45.2z M141.2,42.6l-2.1-8l-2.1,8H141.2z"/>
	<path fill="#1D1B1C" d="M165,37.2c0.7,0.9,1,2.2,1,3.9v8.7h-3.1v-8.4c0-0.9-0.2-1.6-0.5-2c-0.3-0.5-0.8-0.7-1.4-0.7
		c-0.9,0-1.8,0.6-2.5,1.7v0.5V50h-3.1v-8.7c0-0.8-0.2-1.4-0.5-1.8c-0.3-0.4-0.8-0.7-1.4-0.7c-1,0-1.8,0.6-2.5,1.7V50h-3V36.1h3.1
		v1.5c0.9-1.2,2.1-1.8,3.5-1.8c1.7,0,2.9,0.7,3.5,2.2c0.5-0.7,1.1-1.2,1.7-1.6c0.6-0.4,1.4-0.6,2.2-0.6
		C163.3,35.8,164.3,36.3,165,37.2z"/>
	<path fill="#1D1B1C" d="M178.9,43.7h-8.1c0.1,2.5,1.2,3.7,3.1,3.7c0.7,0,1.2-0.1,1.8-0.3c0.5-0.2,1-0.5,1.4-0.9l1.1,2.2
		c-0.6,0.5-1.3,0.9-2,1.2s-1.6,0.4-2.5,0.4c-1.9,0-3.4-0.6-4.4-1.9c-1.1-1.3-1.6-3-1.6-5.2c0-1.5,0.2-2.8,0.7-3.8
		c0.5-1.1,1.2-1.9,2-2.5c0.9-0.6,1.9-0.8,3-0.8c1.7,0,3.1,0.6,4,1.9c1,1.3,1.4,3.1,1.4,5.5v0.5C178.8,43.7,178.9,43.7,178.9,43.7z
		 M175.7,41.6c-0.1-1.1-0.3-2-0.7-2.5s-0.9-0.8-1.6-0.8c-0.7,0-1.3,0.3-1.7,0.8s-0.7,1.3-0.8,2.5H175.7z"/>
	<path fill="#1D1B1C" d="M187.5,36.1v3h-1c-0.7,0-1.2,0.2-1.6,0.5c-0.4,0.3-0.8,0.8-1,1.4v8.8h-3.1V36.1h3.1v2
		c0.3-0.8,0.7-1.3,1.2-1.6s1-0.5,1.7-0.5L187.5,36.1L187.5,36.1z"/>
	<path fill="#1D1B1C" d="M189,33.3c-0.4-0.4-0.5-0.8-0.5-1.4c0-0.5,0.2-1,0.5-1.3c0.4-0.4,0.8-0.5,1.3-0.5s1,0.2,1.3,0.5
		c0.4,0.4,0.5,0.8,0.5,1.3c0,0.5-0.2,1-0.5,1.4c-0.4,0.4-0.8,0.6-1.3,0.6C189.8,33.9,189.4,33.7,189,33.3z M188.8,36.1h3.1v13.7
		h-3.1V36.1z"/>
	<path fill="#1D1B1C" d="M196.6,49.3c-0.9-0.6-1.6-1.4-2.1-2.4c-0.5-1.1-0.8-2.3-0.8-3.8s0.3-2.8,0.8-3.9c0.5-1.1,1.2-1.9,2.1-2.5
		c0.9-0.6,1.9-0.8,3-0.8c1.5,0,2.8,0.5,3.9,1.4l-1.4,2.3c-0.7-0.6-1.4-0.9-2.2-0.9c-0.9,0-1.7,0.4-2.2,1.1S197,41.6,197,43
		s0.3,2.4,0.8,3.2c0.5,0.7,1.2,1.1,2.2,1.1c0.8,0,1.6-0.3,2.3-0.9l1.3,2.3c-0.6,0.5-1.2,0.8-1.8,1.1c-0.6,0.2-1.3,0.4-2.1,0.4
		C198.5,50.1,197.5,49.8,196.6,49.3z"/>
	<path fill="#1D1B1C" d="M216,46.8c0.2,0.2,0.5,0.3,1,0.4V50h-0.6c-0.9,0-1.6-0.1-2.2-0.4c-0.6-0.3-1-0.7-1.2-1.3
		c-0.4,0.6-1,1.1-1.6,1.4c-0.6,0.3-1.4,0.5-2.1,0.5c-1.1,0-2-0.3-2.9-0.8c-0.8-0.6-1.5-1.4-1.9-2.5c-0.5-1.1-0.7-2.4-0.7-3.8
		c0-1.4,0.2-2.7,0.7-3.8s1.1-1.9,1.9-2.5c0.8-0.6,1.8-0.9,2.8-0.9c1.3,0,2.4,0.5,3.2,1.4v-1.1h3.1v9.6
		C215.7,46.3,215.8,46.6,216,46.8z M212.6,40.4c-0.3-0.5-0.6-1-1-1.3s-1-0.4-1.6-0.4c-0.9,0-1.6,0.4-2.1,1.1
		c-0.5,0.7-0.8,1.8-0.8,3.1c0,1.4,0.3,2.5,0.8,3.2s1.2,1.1,2.1,1.1c0.6,0,1.1-0.2,1.6-0.5s0.8-0.7,1.1-1.3v-5
		C212.7,40.4,212.6,40.4,212.6,40.4z"/>
	<path fill="#1D1B1C" d="M229.5,41.2v8.6h-3.1v-8.4c0-1.9-0.7-2.8-2.1-2.8c-1,0-1.9,0.6-2.7,1.7v9.5h-3.1V36.1h3.1v1.5
		c1-1.2,2.2-1.8,3.7-1.8C228.2,35.8,229.5,37.6,229.5,41.2z"/>
	<path fill="#1D1B1C" d="M250.2,30.6v19.3h-3.4v-8.2h-6.4v8.2H237V30.6h3.4v8.1h6.4v-8.1H250.2z"/>
	<path fill="#1D1B1C" d="M263.6,43.7h-8.1c0.1,2.5,1.2,3.7,3.1,3.7c0.7,0,1.2-0.1,1.8-0.3c0.5-0.2,1-0.5,1.4-0.9l1.1,2.2
		c-0.6,0.5-1.3,0.9-2,1.2s-1.6,0.4-2.5,0.4c-1.9,0-3.4-0.6-4.4-1.9c-1.1-1.3-1.6-3-1.6-5.2c0-1.5,0.2-2.8,0.7-3.8
		c0.5-1.1,1.2-1.9,2-2.5c0.9-0.6,1.9-0.8,3-0.8c1.7,0,3.1,0.6,4,1.9c1,1.3,1.4,3.1,1.4,5.5v0.5C263.5,43.7,263.6,43.7,263.6,43.7z
		 M260.4,41.6c-0.1-1.1-0.3-2-0.7-2.5c-0.4-0.5-0.9-0.8-1.6-0.8s-1.3,0.3-1.7,0.8c-0.4,0.5-0.7,1.3-0.8,2.5H260.4z"/>
	<path fill="#1D1B1C" d="M276.7,46.8c0.2,0.2,0.5,0.3,1,0.4V50h-0.6c-0.9,0-1.6-0.1-2.2-0.4c-0.6-0.3-1-0.7-1.2-1.3
		c-0.4,0.6-1,1.1-1.6,1.4c-0.6,0.3-1.4,0.5-2.1,0.5c-1.1,0-2-0.3-2.9-0.8c-0.8-0.6-1.5-1.4-1.9-2.5c-0.5-1.1-0.7-2.4-0.7-3.8
		c0-1.4,0.2-2.7,0.7-3.8s1.1-1.9,1.9-2.5s1.8-0.9,2.8-0.9c1.3,0,2.4,0.5,3.2,1.4v-1.1h3.1v9.6C276.4,46.3,276.5,46.6,276.7,46.8z
		 M273.3,40.4c-0.3-0.5-0.6-1-1-1.3s-1-0.4-1.6-0.4c-0.9,0-1.6,0.4-2.1,1.1c-0.5,0.7-0.8,1.8-0.8,3.1c0,1.4,0.3,2.5,0.8,3.2
		s1.2,1.1,2.1,1.1c0.6,0,1.1-0.2,1.6-0.5s0.8-0.7,1.1-1.3v-5C273.4,40.4,273.3,40.4,273.3,40.4z"/>
	<path fill="#1D1B1C" d="M286,36.1v3h-1c-0.7,0-1.2,0.2-1.6,0.5s-0.8,0.8-1,1.4v8.8h-3.1V36.1h3.1v2c0.3-0.8,0.7-1.3,1.2-1.6
		s1-0.5,1.7-0.5L286,36.1L286,36.1z"/>
	<path fill="#1D1B1C" d="M289.9,48.8c-0.8-0.8-1.2-2.1-1.2-4v-6.1h-2.3v-2.6h2.3V32h3.1v4.2h3.1v2.6h-3.1v5.6c0,1,0.2,1.7,0.5,2.1
		c0.3,0.5,0.9,0.7,1.6,0.7h1V50h-1.5C291.9,50,290.7,49.6,289.9,48.8z"/>
	<path fill="#1D1B1C" d="M186.1,67.4h-5.6l-1.2,4.6h-3.4l5.6-19.3h3.7l5.6,19.3h-3.6L186.1,67.4z M185.4,64.7l-2.1-8l-2.1,8H185.4z"
		/>
	<path fill="#1D1B1C" d="M193.1,71.8c-0.8-0.3-1.5-0.9-2.1-1.6l1.7-1.9c0.9,1.1,1.9,1.6,2.9,1.6c0.6,0,1-0.1,1.3-0.4
		s0.5-0.6,0.5-1.1s-0.2-1-0.5-1.2c-0.4-0.3-1-0.6-1.8-1c-0.7-0.3-1.3-0.6-1.8-0.9s-0.9-0.7-1.2-1.3c-0.3-0.5-0.5-1.2-0.5-2
		c0-1.2,0.4-2.1,1.3-2.9c0.8-0.7,1.9-1.1,3.2-1.1c1.8,0,3.2,0.6,4.2,1.8l-1.8,1.7c-0.6-0.7-1.3-1.1-2.2-1.1c-0.5,0-0.9,0.1-1.2,0.4
		s-0.4,0.6-0.4,1c0,0.5,0.2,0.8,0.5,1.1c0.4,0.3,1,0.6,1.9,1c0.7,0.3,1.3,0.6,1.8,0.9s0.8,0.7,1.2,1.3c0.3,0.6,0.5,1.3,0.5,2.1
		c0,1.2-0.4,2.2-1.3,2.9c-0.8,0.8-2,1.1-3.4,1.1C194.7,72.3,193.8,72.1,193.1,71.8z"/>
	<path fill="#1D1B1C" d="M203,71.8c-0.8-0.3-1.5-0.9-2.1-1.6l1.7-1.9c0.9,1.1,1.9,1.6,2.9,1.6c0.6,0,1-0.1,1.3-0.4s0.5-0.6,0.5-1.1
		s-0.2-1-0.5-1.2c-0.4-0.3-1-0.6-1.8-1c-0.7-0.3-1.3-0.6-1.8-0.9s-0.9-0.7-1.2-1.3c-0.3-0.5-0.5-1.2-0.5-2c0-1.2,0.4-2.1,1.3-2.9
		c0.8-0.7,1.9-1.1,3.2-1.1c1.8,0,3.2,0.6,4.2,1.8l-1.8,1.7c-0.6-0.7-1.3-1.1-2.2-1.1c-0.5,0-0.9,0.1-1.2,0.4s-0.4,0.6-0.4,1
		c0,0.5,0.2,0.8,0.5,1.1c0.4,0.3,1,0.6,1.9,1c0.7,0.3,1.3,0.6,1.8,0.9s0.8,0.7,1.2,1.3c0.3,0.6,0.5,1.3,0.5,2.1
		c0,1.2-0.4,2.2-1.3,2.9c-0.8,0.8-2,1.1-3.4,1.1C204.7,72.3,203.8,72.1,203,71.8z"/>
	<path fill="#1D1B1C" d="M212.9,70.4c-1.1-1.3-1.6-3-1.6-5.2c0-2.2,0.5-3.9,1.6-5.2s2.5-1.9,4.4-1.9c1.2,0,2.3,0.3,3.2,0.9
		c0.9,0.6,1.6,1.4,2.1,2.5s0.7,2.3,0.7,3.8c0,2.2-0.5,3.9-1.6,5.2c-1.1,1.3-2.5,1.9-4.4,1.9C215.4,72.3,214,71.6,212.9,70.4z
		 M219.3,68.3c0.5-0.8,0.7-1.8,0.7-3.1c0-1.3-0.3-2.4-0.7-3.1c-0.5-0.7-1.2-1.1-2-1.1c-0.9,0-1.6,0.4-2.1,1.1
		c-0.5,0.8-0.7,1.8-0.7,3.1c0,1.3,0.3,2.4,0.7,3.1c0.5,0.8,1.2,1.1,2,1.1C218.2,69.4,218.8,69,219.3,68.3z"/>
	<path fill="#1D1B1C" d="M227.4,71.5c-0.9-0.6-1.6-1.4-2.1-2.4c-0.5-1.1-0.8-2.3-0.8-3.8s0.3-2.8,0.8-3.9c0.5-1.1,1.2-1.9,2.1-2.5
		c0.9-0.6,1.9-0.8,3-0.8c1.5,0,2.8,0.5,3.9,1.4l-1.4,2.3c-0.7-0.6-1.4-0.9-2.2-0.9c-0.9,0-1.7,0.4-2.2,1.1c-0.5,0.7-0.8,1.8-0.8,3.2
		c0,1.4,0.3,2.4,0.8,3.2c0.5,0.7,1.2,1.1,2.2,1.1c0.8,0,1.6-0.3,2.3-0.9l1.3,2.3c-0.6,0.5-1.2,0.8-1.8,1.1c-0.6,0.2-1.3,0.4-2.1,0.4
		C229.3,72.3,228.3,72,227.4,71.5z"/>
	<path fill="#1D1B1C" d="M236.1,55.5c-0.4-0.4-0.5-0.8-0.5-1.4c0-0.5,0.2-1,0.5-1.3c0.4-0.4,0.8-0.5,1.3-0.5s1,0.2,1.3,0.5
		c0.4,0.4,0.5,0.8,0.5,1.3s-0.2,1-0.5,1.4c-0.4,0.4-0.8,0.6-1.3,0.6C236.9,56,236.5,55.9,236.1,55.5z M235.9,58.3h3.1V72h-3.1V58.3z
		"/>
	<path fill="#1D1B1C" d="M253,69c0.2,0.2,0.5,0.3,1,0.4v2.8h-0.6c-0.9,0-1.6-0.1-2.2-0.4c-0.6-0.3-1-0.7-1.2-1.3
		c-0.4,0.6-1,1.1-1.6,1.4s-1.4,0.5-2.1,0.5c-1.1,0-2-0.3-2.9-0.8c-0.8-0.6-1.5-1.4-1.9-2.5c-0.5-1.1-0.7-2.4-0.7-3.8
		s0.2-2.7,0.7-3.8s1.1-1.9,1.9-2.5c0.8-0.6,1.8-0.9,2.8-0.9c1.3,0,2.4,0.5,3.2,1.4v-1.1h3.1V68C252.6,68.4,252.7,68.8,253,69z
		 M249.5,62.6c-0.3-0.5-0.6-1-1-1.3s-1-0.4-1.6-0.4c-0.9,0-1.6,0.4-2.1,1.1s-0.8,1.8-0.8,3.1c0,1.4,0.3,2.5,0.8,3.2s1.2,1.1,2.1,1.1
		c0.6,0,1.1-0.2,1.6-0.5s0.8-0.7,1.1-1.3v-5C249.6,62.6,249.5,62.6,249.5,62.6z"/>
	<path fill="#1D1B1C" d="M257.8,71c-0.8-0.8-1.2-2.1-1.2-4v-6.1h-2.3v-2.6h2.3v-4.2h3.1v4.2h3.1v2.6h-3.1v5.6c0,1,0.2,1.7,0.5,2.1
		c0.3,0.5,0.9,0.7,1.6,0.7h1v2.8h-1.5C259.7,72.2,258.6,71.8,257.8,71z"/>
	<path fill="#1D1B1C" d="M264.5,55.5c-0.4-0.4-0.5-0.8-0.5-1.4c0-0.5,0.2-1,0.5-1.3c0.4-0.4,0.8-0.5,1.3-0.5s1,0.2,1.3,0.5
		c0.4,0.4,0.5,0.8,0.5,1.3s-0.2,1-0.5,1.4c-0.4,0.4-0.8,0.6-1.3,0.6C265.3,56,264.9,55.9,264.5,55.5z M264.3,58.3h3.1V72h-3.1V58.3z
		"/>
	<path fill="#1D1B1C" d="M270.9,70.4c-1.1-1.3-1.6-3-1.6-5.2c0-2.2,0.5-3.9,1.6-5.2s2.5-1.9,4.4-1.9c1.2,0,2.3,0.3,3.2,0.9
		c0.9,0.6,1.6,1.4,2.1,2.5s0.7,2.3,0.7,3.8c0,2.2-0.5,3.9-1.6,5.2c-1.1,1.3-2.5,1.9-4.4,1.9C273.4,72.3,271.9,71.6,270.9,70.4z
		 M277.3,68.3c0.5-0.8,0.7-1.8,0.7-3.1c0-1.3-0.3-2.4-0.7-3.1c-0.5-0.7-1.2-1.1-2-1.1c-0.9,0-1.6,0.4-2.1,1.1
		c-0.5,0.8-0.7,1.8-0.7,3.1c0,1.3,0.3,2.4,0.7,3.1c0.5,0.8,1.2,1.1,2,1.1C276.1,69.4,276.8,69,277.3,68.3z"/>
	<path fill="#1D1B1C" d="M294.1,63.4V72H291v-8.4c0-1.9-0.7-2.8-2.1-2.8c-1,0-1.9,0.6-2.7,1.7V72h-3.1V58.3h3.1v1.5
		c1-1.2,2.2-1.8,3.7-1.8C292.7,58,294.1,59.8,294.1,63.4z"/>
</g>
<g>
	<path fill="#1E1B1C" d="M301.3,65.5c0.4,0.3,0.8,0.7,1,1.2s0.4,1.2,0.4,1.9s-0.1,1.4-0.4,1.9c-0.2,0.5-0.6,0.9-1,1.2
		c-0.4,0.3-0.9,0.4-1.4,0.4s-1-0.1-1.4-0.4s-0.8-0.7-1-1.2c-0.3-0.5-0.4-1.2-0.4-1.9s0.1-1.4,0.4-1.9s0.6-0.9,1-1.2
		c0.4-0.3,0.9-0.4,1.4-0.4S300.9,65.2,301.3,65.5z M301.4,70.7c0.4-0.5,0.6-1.2,0.6-2.1s-0.2-1.6-0.6-2.1s-0.9-0.7-1.6-0.7
		c-0.6,0-1.1,0.2-1.5,0.7s-0.6,1.2-0.6,2.1s0.2,1.6,0.6,2.1s0.9,0.7,1.5,0.7C300.5,71.4,301,71.2,301.4,70.7z M300.9,69.5
		c0.1,0.2,0.2,0.2,0.3,0.2h0.1v0.7h-0.1c-0.2,0-0.4,0-0.5-0.1s-0.3-0.2-0.4-0.4c-0.1-0.2-0.3-0.5-0.4-1l0,0h-0.2v1.5h-0.8v-3.8h1.2
		c0.3,0,0.6,0.1,0.8,0.3c0.2,0.2,0.3,0.5,0.3,0.9c0,0.2,0,0.4-0.1,0.5c-0.1,0.2-0.2,0.3-0.4,0.4C300.7,69.1,300.8,69.3,300.9,69.5z
		 M299.6,68.3h0.2c0.1,0,0.2,0,0.3-0.1c0.1-0.1,0.1-0.2,0.1-0.3c0-0.3-0.1-0.5-0.4-0.5h-0.2V68.3z"/>
</g>
</svg>
